HIERARCHY
ROOT Hips
{
	OFFSET 0.000000 97.167313 0.000000
	CHANNELS 6 Xposition Yposition Zposition Xrotation Yrotation Zrotation
	JOINT Spine
	{
		OFFSET 0.000000 13.784798 0.064400
		CHANNELS 3 Xrotation Yrotation Zrotation
		JOINT Spine1
		{
			OFFSET 0.000000 12.037903 0.404700
			CHANNELS 3 Xrotation Yrotation Zrotation
			JOINT Spine2
			{
				OFFSET 0.000000 17.795601 0.420200
				CHANNELS 3 Xrotation Yrotation Zrotation
				JOINT Neck
				{
					OFFSET 0.000000 39.131302 11.954600
					CHANNELS 3 Xrotation Yrotation Zrotation
					JOINT Head
					{
						OFFSET 0.000000 14.456192 15.627699
						CHANNELS 3 Xrotation Yrotation Zrotation
						JOINT HeadTop_End
						{
							OFFSET 0.000000 15.703506 7.603401
							CHANNELS 3 Xrotation Yrotation Zrotation
							End Site
							{
								OFFSET 0.000000 17.447403 0.000000
							}
						}
					}
				}
				JOINT LeftShoulder
				{
					OFFSET 17.399500 24.608795 1.168800
					CHANNELS 3 Xrotation Yrotation Zrotation
					JOINT LeftArm
					{
						OFFSET 18.980635 5.765305 1.818600
						CHANNELS 3 Xrotation Yrotation Zrotation
						JOINT LeftForeArm
						{
							OFFSET 49.290169 0.000000 0.000000
							CHANNELS 3 Xrotation Yrotation Zrotation
							JOINT LeftHand
							{
								OFFSET 31.562012 0.000000 0.000000
								CHANNELS 3 Xrotation Yrotation Zrotation
								JOINT LeftHandThumb1
								{
									OFFSET 6.133995 -4.388519 7.076070
									CHANNELS 3 Xrotation Yrotation Zrotation
									JOINT LeftHandThumb2
									{
										OFFSET 6.037666 -3.485840 3.485847
										CHANNELS 3 Xrotation Yrotation Zrotation
										JOINT LeftHandThumb3
										{
											OFFSET 6.496506 -3.750763 3.750761
											CHANNELS 3 Xrotation Yrotation Zrotation
											JOINT LeftHandThumb4
											{
												OFFSET 5.616882 -3.242905 3.242910
												CHANNELS 3 Xrotation Yrotation Zrotation
												End Site
												{
													OFFSET -1.254608 7.132141 0.375429
												}
											}
										}
									}
								}
								JOINT LeftHandPinky1
								{
									OFFSET 18.920792 -0.453171 -11.426712
									CHANNELS 3 Xrotation Yrotation Zrotation
									JOINT LeftHandPinky2
									{
										OFFSET 4.919586 0.000000 0.000000
										CHANNELS 3 Xrotation Yrotation Zrotation
										JOINT LeftHandPinky3
										{
											OFFSET 5.233047 0.000000 0.000000
											CHANNELS 3 Xrotation Yrotation Zrotation
											JOINT LeftHandPinky4
											{
												OFFSET 5.571716 0.000000 0.000000
												CHANNELS 3 Xrotation Yrotation Zrotation
												End Site
												{
													OFFSET -3.459808 4.342407 -0.466164
												}
											}
										}
									}
								}
								JOINT LeftHandRing1
								{
									OFFSET 22.726120 -0.094986 -6.500475
									CHANNELS 3 Xrotation Yrotation Zrotation
									JOINT LeftHandRing2
									{
										OFFSET 6.408615 0.000000 0.000000
										CHANNELS 3 Xrotation Yrotation Zrotation
										JOINT LeftHandRing3
										{
											OFFSET 6.150223 0.000000 0.000000
											CHANNELS 3 Xrotation Yrotation Zrotation
											JOINT LeftHandRing4
											{
												OFFSET 6.145386 0.000000 0.000000
												CHANNELS 3 Xrotation Yrotation Zrotation
												End Site
												{
													OFFSET -3.671402 4.923981 -0.202372
												}
											}
										}
									}
								}
								JOINT LeftHandMiddle1
								{
									OFFSET 23.373947 0.000000 0.000001
									CHANNELS 3 Xrotation Yrotation Zrotation
									JOINT LeftHandMiddle2
									{
										OFFSET 6.996567 0.000000 0.000000
										CHANNELS 3 Xrotation Yrotation Zrotation
										JOINT LeftHandMiddle3
										{
											OFFSET 7.015945 0.000000 0.000000
											CHANNELS 3 Xrotation Yrotation Zrotation
											JOINT LeftHandMiddle4
											{
												OFFSET 7.721573 0.000000 0.000000
												CHANNELS 3 Xrotation Yrotation Zrotation
												End Site
												{
													OFFSET -4.651108 6.158463 0.251582
												}
											}
										}
									}
								}
								JOINT LeftHandIndex1
								{
									OFFSET 21.310577 -0.490082 6.209344
									CHANNELS 3 Xrotation Yrotation Zrotation
									JOINT LeftHandIndex2
									{
										OFFSET 7.536453 0.000000 0.000000
										CHANNELS 3 Xrotation Yrotation Zrotation
										JOINT LeftHandIndex3
										{
											OFFSET 7.512344 0.000000 0.000000
											CHANNELS 3 Xrotation Yrotation Zrotation
											JOINT LeftHandIndex4
											{
												OFFSET 10.212402 0.000000 0.000001
												CHANNELS 3 Xrotation Yrotation Zrotation
												End Site
												{
													OFFSET -5.180801 8.690506 1.388433
												}
											}
										}
									}
								}
							}
						}
					}
				}
				JOINT RightShoulder
				{
					OFFSET -17.399500 24.608795 1.168800
					CHANNELS 3 Xrotation Yrotation Zrotation
					JOINT RightArm
					{
						OFFSET -18.980635 5.765305 1.818600
						CHANNELS 3 Xrotation Yrotation Zrotation
						JOINT RightForeArm
						{
							OFFSET -49.290169 0.000000 0.000000
							CHANNELS 3 Xrotation Yrotation Zrotation
							JOINT RightHand
							{
								OFFSET -31.562012 0.000000 0.000000
								CHANNELS 3 Xrotation Yrotation Zrotation
								JOINT RightHandThumb1
								{
									OFFSET -6.133995 -4.388519 7.076070
									CHANNELS 3 Xrotation Yrotation Zrotation
									JOINT RightHandThumb2
									{
										OFFSET -6.037666 -3.485840 3.485847
										CHANNELS 3 Xrotation Yrotation Zrotation
										JOINT RightHandThumb3
										{
											OFFSET -6.496506 -3.750763 3.750761
											CHANNELS 3 Xrotation Yrotation Zrotation
											JOINT RightHandThumb4
											{
												OFFSET -5.616882 -3.242905 3.242910
												CHANNELS 3 Xrotation Yrotation Zrotation
												End Site
												{
													OFFSET 1.254608 7.132141 0.375429
												}
											}
										}
									}
								}
								JOINT RightHandIndex1
								{
									OFFSET -21.310577 -0.490082 6.209344
									CHANNELS 3 Xrotation Yrotation Zrotation
									JOINT RightHandIndex2
									{
										OFFSET -7.536453 0.000000 0.000000
										CHANNELS 3 Xrotation Yrotation Zrotation
										JOINT RightHandIndex3
										{
											OFFSET -7.512344 0.000000 0.000000
											CHANNELS 3 Xrotation Yrotation Zrotation
											JOINT RightHandIndex4
											{
												OFFSET -10.212402 0.000000 0.000001
												CHANNELS 3 Xrotation Yrotation Zrotation
												End Site
												{
													OFFSET 5.180801 8.690506 1.388433
												}
											}
										}
									}
								}
								JOINT RightHandMiddle1
								{
									OFFSET -23.373947 0.000000 0.000001
									CHANNELS 3 Xrotation Yrotation Zrotation
									JOINT RightHandMiddle2
									{
										OFFSET -6.996567 0.000000 0.000000
										CHANNELS 3 Xrotation Yrotation Zrotation
										JOINT RightHandMiddle3
										{
											OFFSET -7.015945 0.000000 0.000000
											CHANNELS 3 Xrotation Yrotation Zrotation
											JOINT RightHandMiddle4
											{
												OFFSET -7.721573 0.000000 0.000000
												CHANNELS 3 Xrotation Yrotation Zrotation
												End Site
												{
													OFFSET 4.651108 6.158463 0.251582
												}
											}
										}
									}
								}
								JOINT RightHandRing1
								{
									OFFSET -22.726120 -0.094986 -6.500475
									CHANNELS 3 Xrotation Yrotation Zrotation
									JOINT RightHandRing2
									{
										OFFSET -6.408615 0.000000 0.000000
										CHANNELS 3 Xrotation Yrotation Zrotation
										JOINT RightHandRing3
										{
											OFFSET -6.150223 0.000000 0.000000
											CHANNELS 3 Xrotation Yrotation Zrotation
											JOINT RightHandRing4
											{
												OFFSET -6.145386 0.000000 0.000000
												CHANNELS 3 Xrotation Yrotation Zrotation
												End Site
												{
													OFFSET 3.671402 4.923981 -0.202372
												}
											}
										}
									}
								}
								JOINT RightHandPinky1
								{
									OFFSET -18.920792 -0.453171 -11.426712
									CHANNELS 3 Xrotation Yrotation Zrotation
									JOINT RightHandPinky2
									{
										OFFSET -4.919586 0.000000 0.000000
										CHANNELS 3 Xrotation Yrotation Zrotation
										JOINT RightHandPinky3
										{
											OFFSET -5.233047 0.000000 0.000000
											CHANNELS 3 Xrotation Yrotation Zrotation
											JOINT RightHandPinky4
											{
												OFFSET -5.571716 0.000000 0.000000
												CHANNELS 3 Xrotation Yrotation Zrotation
												End Site
												{
													OFFSET 3.459808 4.342407 -0.466164
												}
											}
										}
									}
								}
							}
						}
					}
				}
			}
		}
	}
	JOINT LeftUpLeg
	{
		OFFSET 19.899099 -7.885101 -3.429500
		CHANNELS 3 Xrotation Yrotation Zrotation
		JOINT LeftLeg
		{
			OFFSET 1.745560 -36.997807 10.304700
			CHANNELS 3 Xrotation Yrotation Zrotation
			JOINT LeftFoot
			{
				OFFSET -1.745558 -29.803308 -13.615400
				CHANNELS 3 Xrotation Yrotation Zrotation
				JOINT LeftToeBase
				{
					OFFSET 1.181900 -18.539904 15.226099
					CHANNELS 3 Xrotation Yrotation Zrotation
					JOINT LeftToe_End
					{
						OFFSET -0.863701 1.402801 16.534700
						CHANNELS 3 Xrotation Yrotation Zrotation
						End Site
						{
							OFFSET 0.000000 16.616566 0.000000
						}
					}
				}
			}
		}
	}
	JOINT RightUpLeg
	{
		OFFSET -19.899099 -7.885101 -3.429500
		CHANNELS 3 Xrotation Yrotation Zrotation
		JOINT RightLeg
		{
			OFFSET -1.745560 -36.997807 10.304700
			CHANNELS 3 Xrotation Yrotation Zrotation
			JOINT RightFoot
			{
				OFFSET 1.745558 -29.803308 -13.615400
				CHANNELS 3 Xrotation Yrotation Zrotation
				JOINT RightToeBase
				{
					OFFSET -1.181900 -18.539904 15.226099
					CHANNELS 3 Xrotation Yrotation Zrotation
					JOINT RightToe_End
					{
						OFFSET 0.863701 1.402801 16.534700
						CHANNELS 3 Xrotation Yrotation Zrotation
						End Site
						{
							OFFSET 0.000000 16.616566 0.000000
						}
					}
				}
			}
		}
	}
}
MOTION
Frames: 4
Frame Time: 0.033333
-26.286011 87.881042 -68.180870 -3.129617 23.168997 3.383783 16.462255 -0.265074 -2.423732 14.963980 0.086821 0.395765 14.963080 0.048645 0.415747 4.166665 -3.678035 2.816477 14.506308 -25.011331 17.977790 0.000001 0.000000 -0.000001 -0.401663 -13.770036 -20.555497 -24.303235 -4.436368 -43.306763 0.000007 -1.555885 -0.000013 26.512636 -8.839737 -6.809860 -0.266441 4.548699 10.792682 12.927865 3.667238 12.122645 -2.209655 -26.843185 15.716427 0.000004 0.000001 0.000003 0.406406 4.519761 -19.201812 0.753564 2.876168 -29.358018 0.167977 1.394221 -13.739205 0.000003 -0.000000 -0.000001 1.191340 7.955166 -12.634501 1.330267 3.718338 -39.358992 0.346472 1.986575 -19.784222 -0.000000 0.000000 0.000003 0.897559 6.556662 -13.189709 0.463519 2.285754 -22.923614 0.420657 2.181738 -21.824240 -0.000001 -0.000001 0.000006 0.413017 3.413584 -8.789418 0.509025 2.390439 -24.039290 0.205062 1.537923 -15.188464 -0.000001 0.000003 0.000001 -0.247541 10.137730 23.751775 -44.866311 40.195325 65.488844 0.000003 12.293871 -0.000007 27.205116 10.370639 11.428200 -6.439863 1.666971 -14.228013 16.707555 -19.358711 6.590198 -18.203847 15.056336 -10.737967 0.000000 -0.000001 0.000002 -1.503530 3.329792 16.222941 0.582778 -2.257639 28.943886 0.434728 -1.966537 24.929096 -0.000000 -0.000001 0.000001 -1.465093 0.881194 20.848309 1.037457 -2.932318 38.961318 0.325207 -1.711402 21.517029 -0.000001 0.000001 -0.000002 -0.016515 -2.845329 18.458200 1.478745 -3.405701 46.930793 0.274978 -1.578111 19.767032 0.000001 -0.000000 -0.000003 -12.598113 -12.870403 12.241677 1.008673 -2.896387 38.394997 0.242518 -1.484742 18.552786 0.000000 -0.000000 0.000002 -35.436186 4.145460 0.448892 19.073816 3.726477 3.489628 0.764200 5.455321 -10.049206 1.920647 0.000007 0.000004 -0.000001 0.000002 0.000002 -8.205510 -4.837685 3.765802 33.891798 5.225119 -2.050324 -21.951765 2.029806 -5.375442 -0.417839 0.000007 0.000002 -0.000000 -0.000003 -0.000000 
-27.524357 88.803886 -70.378677 -3.439786 24.952331 3.754838 16.355195 -0.977623 -2.342145 14.862849 -0.076339 0.463505 14.861199 -0.109070 0.487857 4.157795 -3.727244 2.814647 14.674197 -25.368543 18.174647 -0.000002 0.000000 -0.000001 -0.485910 -14.298650 -20.911083 -26.623553 -6.385034 -44.455188 -0.000001 0.000002 0.000002 27.914705 -9.186092 -6.915894 -0.266439 4.548709 10.792683 13.221374 4.355236 11.774694 -2.490443 -27.159706 16.656014 0.000003 0.000001 -0.000002 0.395608 4.555582 -20.665012 0.751393 2.872305 -29.314571 0.169643 1.401047 -13.807802 -0.000000 -0.000000 -0.000004 1.314569 7.955272 -14.220732 1.335577 3.724777 -39.440688 0.350447 1.997603 -19.898771 -0.000001 0.000002 0.000003 0.961122 6.555540 -14.430837 0.465119 2.289537 -22.963829 0.422288 2.185787 -21.866931 -0.000001 -0.000000 0.000008 0.373380 3.522364 -10.885734 0.507643 2.387319 -24.006023 0.207360 1.546374 -15.273911 0.000000 0.000001 0.000002 -0.179792 9.434743 24.002892 -43.208456 38.773700 64.194592 -0.000002 12.103352 0.000029 27.086857 10.187260 12.402668 -6.439862 1.666966 -14.228009 17.138328 -19.985014 7.023414 -18.232130 14.931965 -10.507780 -0.000002 0.000000 -0.000000 -1.488768 3.422725 16.035843 0.585499 -2.262605 29.013271 0.436059 -1.969368 24.967506 -0.000003 0.000000 0.000001 -1.537794 1.104683 20.744377 1.037846 -2.932763 38.968429 0.324651 -1.710003 21.498589 0.000000 0.000001 -0.000004 -0.073706 -2.650620 18.094066 1.477965 -3.404939 46.917577 0.274261 -1.576130 19.741009 0.000000 -0.000000 0.000000 -12.645336 -12.472422 12.388259 1.006622 -2.893790 38.354476 0.241209 -1.480834 18.501847 -0.000002 0.000000 0.000004 -33.362247 3.671167 -0.108064 16.979229 4.895035 3.697721 4.163932 7.139473 -10.153116 2.030547 -0.000002 0.000002 0.000001 -0.000001 0.000001 -9.316426 -4.871940 3.347045 32.084353 3.963545 -1.578848 -19.086286 1.686820 -4.556055 -0.119549 0.000004 0.000000 0.000000 0.000001 0.000000 
-28.267832 88.848396 -72.096649 -4.417667 25.833044 4.089069 16.444908 -1.090980 -2.073251 14.845203 -0.134515 0.477183 14.843362 -0.166403 0.503402 4.106360 -3.728806 2.709524 14.388716 -25.512841 17.874465 -0.000002 -0.000000 -0.000001 -0.568441 -14.611173 -21.413007 -28.617719 -8.357927 -45.711779 -0.000003 -0.020843 0.000009 30.239375 -9.052844 -6.099782 -0.266437 4.548710 10.792685 13.486908 4.953612 11.465221 -2.679476 -27.397656 17.343705 0.000003 -0.000001 -0.000002 0.389979 4.598838 -21.998395 0.756973 2.882206 -29.425770 0.171455 1.408356 -13.881259 -0.000002 0.000000 -0.000006 1.419625 7.952489 -15.611309 1.337342 3.726934 -39.468040 0.352287 2.002664 -19.951360 -0.000003 0.000002 0.000000 1.016843 6.565667 -15.488671 0.465234 2.289810 -22.966747 0.421253 2.183200 -21.839716 0.000002 0.000001 0.000009 0.340413 3.634715 -12.874006 0.509558 2.391615 -24.051924 0.216228 1.578482 -15.599256 -0.000001 0.000003 0.000001 -0.101694 8.922214 23.749116 -40.679603 36.996071 62.799321 -0.000003 12.089907 0.000013 25.932949 10.599403 11.994083 -6.439864 1.666966 -14.228006 16.981519 -19.762234 6.867561 -18.392759 15.667781 -11.047508 0.000001 -0.000002 0.000002 -1.383244 3.427831 15.017493 0.614652 -2.314333 29.743104 0.430445 -1.957284 24.803885 -0.000001 -0.000001 -0.000003 -1.367329 1.187020 18.703976 1.034648 -2.928841 38.906236 0.324066 -1.708507 21.478652 -0.000000 0.000000 -0.000004 -0.028229 -2.707473 16.637311 1.472387 -3.399745 46.823491 0.276033 -1.581077 19.805665 -0.000003 -0.000002 -0.000003 -12.688637 -12.171244 12.443188 1.005062 -2.891838 38.323307 0.242376 -1.484272 18.546569 -0.000002 0.000001 0.000011 -31.669285 3.434360 0.251652 20.483341 6.113514 3.377453 5.258039 7.023612 -8.972761 2.626054 -0.000007 0.000006 0.000000 0.000002 -0.000000 -10.062274 -5.144551 3.216106 32.324997 3.515198 -1.453822 -17.913566 1.518623 -4.098898 0.232534 0.000039 -0.061733 0.000000 -0.000000 0.000000 
-28.759642 87.993469 -73.675743 -5.054352 26.130192 3.951190 16.027216 -1.125483 -1.499100 14.737347 -0.200777 0.471191 14.735344 -0.229645 0.497960 4.107333 -3.673425 2.598764 14.102996 -25.319206 17.367172 0.000000 0.000000 -0.000000 -0.592161 -14.493578 -21.744228 -30.060042 -9.637965 -47.032092 0.000001 -1.676672 -0.000010 31.728083 -7.783856 -5.587201 -0.266442 4.548703 10.792684 13.741174 5.506353 11.173383 -2.923034 -27.688088 18.120208 0.000001 -0.000004 -0.000002 0.452416 4.734848 -23.203172 0.749457 2.868840 -29.275810 0.174689 1.421394 -14.012486 -0.000001 -0.000001 -0.000002 1.552126 8.118619 -16.700432 1.327135 3.714525 -39.310679 0.351931 2.001682 -19.941152 0.000000 0.000001 0.000003 1.069221 6.638640 -16.119562 0.462065 2.282326 -22.887295 0.416316 2.170857 -21.709866 0.000003 -0.000003 0.000009 0.328667 3.760694 -14.725046 0.515749 2.405428 -24.199879 0.220458 1.593552 -15.752207 -0.000003 0.000003 0.000001 -0.074245 8.837756 23.462610 -37.521825 35.033710 61.207880 0.000000 12.193712 0.000004 24.621329 10.543635 11.759939 -6.439864 1.666965 -14.228011 17.336893 -20.265339 7.221901 -18.524238 16.010944 -11.148265 -0.000000 -0.000003 0.000004 -1.247056 3.499755 13.672255 0.618215 -2.320547 29.831483 0.427420 -1.950772 24.715588 -0.000000 -0.000003 -0.000002 -1.266455 1.290820 17.296228 1.034186 -2.928241 38.896831 0.325258 -1.711528 21.518552 0.000000 0.000003 -0.000001 -0.095736 -2.410360 15.687247 1.474216 -3.401436 46.854206 0.277534 -1.585199 19.859757 0.000000 -0.000001 -0.000002 -12.767669 -11.475970 12.768818 1.005222 -2.892021 38.326466 0.241182 -1.480740 18.500810 -0.000001 -0.000001 0.000007 -31.519008 3.287587 1.174444 29.922840 7.220033 3.082189 2.674810 7.259692 -8.190468 3.135334 0.000011 0.000004 -0.000000 0.000005 -0.000000 -11.830483 -5.212556 3.605109 34.549033 3.070670 -1.687705 -18.054611 1.452744 -3.958328 0.634606 0.000005 0.000000 -0.000000 -0.000000 0.000000 
